<?xml version="1.0" encoding="UTF-8"?>
<svg xmlns="http://www.w3.org/2000/svg" xmlns:xlink="http://www.w3.org/1999/xlink" width="300pt" height="300pt" viewBox="0 0 300 300" version="1.1">
<g id="surface1">
<rect x="0" y="0" width="300" height="300" style="fill:rgb(100%,100%,100%);fill-opacity:1;stroke:none;"/>
<path style=" stroke:none;fill-rule:nonzero;fill:rgb(100%,84.313725%,84.313725%);fill-opacity:1;" d="M 150.167969 256.886719 C 178.761719 256.886719 205.570312 245.90625 225.738281 225.738281 C 245.90625 205.570312 256.886719 178.761719 256.886719 150.167969 C 256.886719 121.574219 245.90625 94.769531 225.738281 74.605469 C 205.570312 54.441406 178.761719 43.457031 150.167969 43.457031 C 121.574219 43.457031 94.769531 54.441406 74.605469 74.605469 C 54.441406 94.769531 43.457031 121.574219 43.457031 150.167969 C 43.457031 178.761719 54.441406 205.570312 74.605469 225.738281 C 94.769531 245.90625 121.574219 256.886719 150.167969 256.886719 Z M 156.300781 238.757812 C 154.261719 239.015625 152.214844 239.015625 150.167969 239.015625 C 147.363281 239.015625 144.550781 238.757812 141.75 238.5 C 132.558594 224.203125 125.667969 208.886719 121.574219 192.808594 L 166.761719 192.808594 C 168.300781 196.636719 171.105469 200.207031 174.421875 202.503906 C 170.082031 215.273438 163.957031 227.269531 156.300781 238.757812 Z M 180.550781 233.648438 C 185.402344 224.71875 189.230469 215.785156 192.292969 206.339844 C 199.699219 204.800781 205.570312 199.699219 208.378906 192.808594 L 228.035156 192.808594 C 217.824219 211.441406 200.71875 225.996094 180.550781 233.648438 Z M 238.757812 150.167969 C 238.757812 158.597656 237.480469 166.761719 235.433594 174.679688 L 207.867188 174.679688 C 206.339844 171.355469 203.785156 168.300781 200.71875 166.003906 C 201.230469 160.382812 201.488281 154.769531 201.488281 149.152344 C 201.488281 141.234375 200.976562 133.316406 199.949219 125.667969 L 235.183594 125.667969 C 237.738281 133.316406 238.757812 141.75 238.757812 150.167969 Z M 228.035156 107.535156 L 196.886719 107.535156 C 193.570312 93.496094 188.71875 80.222656 182.085938 67.457031 C 201.488281 74.859375 217.824219 89.414062 228.035156 107.535156 Z M 183.613281 149.152344 C 183.613281 153.492188 183.355469 157.828125 183.105469 162.167969 C 175.957031 163.699219 170.082031 168.300781 167.277344 174.679688 L 118.007812 174.679688 C 116.980469 167.019531 116.222656 159.105469 116.222656 151.449219 C 116.222656 146.597656 116.472656 141.75 116.980469 136.898438 C 123.621094 135.621094 128.980469 131.277344 132.304688 125.667969 L 182.085938 125.667969 C 183.105469 133.316406 183.613281 141.234375 183.613281 149.152344 Z M 143.535156 61.839844 C 145.828125 61.582031 148.128906 61.582031 150.167969 61.582031 C 152.722656 61.582031 155.277344 61.582031 157.828125 61.839844 C 167.019531 76.136719 173.910156 91.453125 177.996094 107.535156 L 133.574219 107.535156 C 132.046875 103.199219 129.238281 99.371094 125.667969 96.558594 C 130.261719 84.304688 136.128906 72.820312 143.535156 61.839844 Z M 119.285156 66.949219 C 114.941406 75.117188 111.113281 83.792969 108.050781 92.480469 C 100.136719 94.007812 93.753906 99.878906 91.199219 107.277344 L 72.5625 107.277344 C 82.523438 89.15625 99.113281 74.605469 119.285156 66.949219 Z M 61.582031 150.167969 C 61.582031 141.75 62.859375 133.316406 65.160156 125.667969 L 92.988281 125.667969 C 94.519531 128.472656 96.816406 131.027344 99.371094 133.066406 C 98.859375 139.195312 98.347656 145.316406 98.347656 151.449219 C 98.347656 159.363281 98.859375 167.019531 99.878906 174.679688 L 65.160156 174.679688 C 62.605469 166.761719 61.582031 158.597656 61.582031 150.167969 Z M 102.941406 192.550781 C 106.261719 206.339844 111.113281 219.867188 117.75 232.636719 C 98.347656 224.972656 82.261719 210.675781 72.304688 192.550781 Z M 102.941406 192.550781 "/>
</g>
</svg>
