<?xml version="1.0" encoding="UTF-8"?>
<svg xmlns="http://www.w3.org/2000/svg" xmlns:xlink="http://www.w3.org/1999/xlink" width="300pt" height="300pt" viewBox="0 0 300 300" version="1.1">
<g id="surface1">
<rect x="0" y="0" width="300" height="300" style="fill:rgb(100%,100%,100%);fill-opacity:1;stroke:none;"/>
<path style=" stroke:none;fill-rule:nonzero;fill:rgb(99.215686%,17.647059%,0.392157%);fill-opacity:1;" d="M 45.769531 202.59375 C 41.699219 202.59375 38.292969 201.222656 35.550781 198.480469 C 32.804688 195.738281 31.433594 192.308594 31.433594 188.203125 C 31.433594 184.171875 32.804688 180.773438 35.550781 178.011719 C 38.292969 175.269531 41.699219 173.894531 45.769531 173.894531 C 49.859375 173.894531 53.367188 175.175781 56.296875 177.730469 L 52.488281 181.902344 C 50.53125 180.375 48.289062 179.605469 45.769531 179.605469 C 43.195312 179.625 41.113281 180.441406 39.527344 182.042969 C 37.957031 183.632812 37.175781 185.667969 37.175781 188.152344 C 37.175781 190.816406 37.96875 192.9375 39.554688 194.503906 C 41.140625 196.074219 43.222656 196.855469 45.796875 196.855469 C 47.871094 196.855469 49.457031 196.453125 50.558594 195.652344 L 50.558594 190.722656 L 46.75 190.753906 L 46.75 185.378906 L 56.296875 185.378906 L 56.296875 198.792969 C 53.386719 201.328125 49.875 202.59375 45.769531 202.59375 Z M 66.574219 183.445312 L 66.574219 185.574219 C 67.957031 184.171875 69.625 183.472656 71.585938 183.472656 C 72.203125 183.472656 72.789062 183.519531 73.351562 183.613281 L 72.511719 188.90625 C 71.894531 188.34375 71.007812 188.042969 69.851562 188.011719 C 68.542969 188.105469 67.453125 189.046875 66.574219 190.832031 L 66.574219 202.59375 L 61.226562 202.59375 L 61.226562 184.03125 Z M 85.53125 202.792969 C 82.75 202.792969 80.425781 201.863281 78.558594 199.992188 C 76.710938 198.121094 75.785156 195.808594 75.785156 193.050781 C 75.785156 190.265625 76.710938 187.945312 78.558594 186.074219 C 80.425781 184.207031 82.75 183.277344 85.53125 183.277344 C 88.3125 183.277344 90.636719 184.207031 92.503906 186.074219 C 94.367188 187.945312 95.300781 190.265625 95.300781 193.050781 C 95.300781 195.832031 94.367188 198.144531 92.503906 199.992188 C 90.636719 201.863281 88.3125 202.792969 85.53125 202.792969 Z M 85.53125 198.167969 C 86.96875 198.167969 88.144531 197.675781 89.058594 196.6875 C 89.972656 195.722656 90.429688 194.503906 90.429688 193.050781 C 90.429688 191.589844 89.972656 190.378906 89.058594 189.410156 C 88.144531 188.417969 86.957031 187.921875 85.503906 187.921875 C 84.066406 187.921875 82.886719 188.417969 81.972656 189.410156 C 81.078125 190.378906 80.628906 191.589844 80.628906 193.050781 C 80.628906 194.503906 81.078125 195.722656 81.972656 196.6875 C 82.886719 197.675781 84.074219 198.167969 85.53125 198.167969 Z M 110.476562 195.820312 L 110.476562 183.445312 L 115.824219 183.445312 L 115.824219 202.59375 L 110.476562 202.59375 L 110.476562 200.859375 C 109.191406 202.019531 107.660156 202.59375 105.886719 202.59375 C 103.460938 202.59375 101.613281 201.863281 100.34375 200.386719 C 99.054688 198.910156 98.410156 197.222656 98.410156 195.316406 L 98.410156 183.445312 L 103.785156 183.445312 L 103.785156 193.972656 C 103.785156 195.238281 104.101562 196.230469 104.738281 196.941406 C 105.371094 197.648438 106.335938 198.023438 107.621094 198.058594 C 108.742188 197.988281 109.695312 197.238281 110.476562 195.820312 Z M 125.738281 210.660156 L 120.390625 210.632812 L 120.390625 184.03125 L 125.738281 183.445312 L 125.738281 184.988281 C 127.175781 183.957031 128.585938 183.445312 129.964844 183.445312 C 132.898438 183.445312 135.21875 184.40625 136.9375 186.328125 C 138.675781 188.230469 139.542969 190.464844 139.542969 193.019531 C 139.542969 195.582031 138.675781 197.808594 136.9375 199.710938 C 135.21875 201.632812 132.898438 202.59375 129.964844 202.59375 C 128.042969 202.464844 126.632812 201.941406 125.738281 201.027344 Z M 125.738281 191.285156 L 125.738281 194.390625 C 126 196.542969 127.34375 197.800781 129.769531 198.167969 C 132.832031 197.929688 134.558594 196.339844 134.949219 193.410156 C 134.820312 189.824219 133.09375 187.96875 129.769531 187.839844 C 127.34375 188.230469 126 189.378906 125.738281 191.285156 Z M 152.003906 202.792969 C 149.21875 202.792969 146.90625 201.863281 145.058594 199.992188 C 143.191406 198.121094 142.257812 195.808594 142.257812 193.050781 C 142.257812 190.265625 143.191406 187.945312 145.058594 186.074219 C 146.90625 184.207031 149.21875 183.277344 152.003906 183.277344 C 154.785156 183.277344 157.105469 184.207031 158.972656 186.074219 C 160.839844 187.945312 161.773438 190.265625 161.773438 193.050781 C 161.773438 195.832031 160.839844 198.144531 158.972656 199.992188 C 157.105469 201.863281 154.785156 202.792969 152.003906 202.792969 Z M 152.003906 198.167969 C 153.457031 198.167969 154.632812 197.675781 155.53125 196.6875 C 156.445312 195.722656 156.902344 194.503906 156.902344 193.050781 C 156.902344 191.589844 156.445312 190.378906 155.53125 189.410156 C 154.632812 188.417969 153.449219 187.921875 151.972656 187.921875 C 150.535156 187.921875 149.359375 188.417969 148.445312 189.410156 C 147.550781 190.378906 147.101562 191.589844 147.101562 193.050781 C 147.101562 194.503906 147.550781 195.722656 148.445312 196.6875 C 149.359375 197.675781 150.546875 198.167969 152.003906 198.167969 Z M 170.707031 190.359375 L 170.707031 202.59375 L 165.328125 202.59375 L 165.328125 184.03125 L 170.707031 183.445312 L 170.707031 185.152344 C 171.902344 184.03125 173.429688 183.472656 175.296875 183.472656 C 177.707031 183.472656 179.554688 184.199219 180.84375 185.652344 C 182.242188 184.199219 184.34375 183.472656 187.140625 183.472656 C 189.570312 183.472656 191.425781 184.199219 192.714844 185.652344 C 193.984375 187.128906 194.617188 188.832031 194.617188 190.753906 L 194.617188 202.59375 L 189.269531 202.59375 L 189.269531 192.070312 C 189.269531 190.800781 188.980469 189.808594 188.402344 189.097656 C 187.824219 188.410156 186.890625 188.042969 185.601562 188.011719 C 184.539062 188.085938 183.625 188.785156 182.859375 190.105469 C 182.785156 190.5 182.746094 190.902344 182.746094 191.316406 L 182.746094 202.59375 L 177.398438 202.59375 L 177.398438 192.070312 C 177.398438 190.800781 177.109375 189.808594 176.53125 189.097656 C 175.953125 188.410156 175.019531 188.042969 173.730469 188.011719 C 172.554688 188.085938 171.546875 188.863281 170.707031 190.359375 Z M 201.8125 189.019531 L 199.714844 185.769531 C 202.140625 184.238281 204.949219 183.472656 208.140625 183.472656 C 210.4375 183.472656 212.25 184.105469 213.574219 185.378906 C 214.917969 186.660156 215.589844 188.578125 215.589844 191.113281 L 215.589844 202.59375 L 210.242188 202.59375 L 210.242188 201.082031 C 208.675781 202.089844 207.265625 202.59375 206.015625 202.59375 C 203.476562 202.59375 201.5625 202.054688 200.273438 200.972656 C 199.003906 199.894531 198.371094 198.398438 198.371094 196.496094 C 198.371094 194.699219 198.976562 193.105469 200.191406 191.707031 C 201.382812 190.308594 203.324219 189.605469 206.015625 189.605469 C 207.265625 189.605469 208.675781 189.984375 210.242188 190.753906 L 210.242188 190.167969 C 210.203125 188.765625 209.179688 187.996094 207.160156 187.871094 C 204.867188 187.871094 203.082031 188.25 201.8125 189.019531 Z M 210.242188 196.855469 L 210.242188 194.699219 C 209.738281 193.710938 208.523438 193.21875 206.601562 193.21875 C 204.304688 193.476562 203.09375 194.371094 202.960938 195.902344 C 203.09375 197.414062 204.304688 198.238281 206.601562 198.371094 C 208.523438 198.371094 209.738281 197.863281 210.242188 196.855469 Z M 225.753906 190.449219 L 225.753906 202.59375 L 220.378906 202.59375 L 220.378906 184.03125 L 225.753906 183.445312 L 225.753906 185.179688 C 227.042969 184.042969 228.574219 183.472656 230.347656 183.472656 C 232.773438 183.472656 234.621094 184.199219 235.890625 185.652344 C 237.160156 187.128906 237.792969 188.832031 237.792969 190.753906 L 237.792969 202.59375 L 232.445312 202.59375 L 232.445312 192.070312 C 232.445312 190.800781 232.128906 189.808594 231.492188 189.097656 C 230.839844 188.410156 229.871094 188.042969 228.582031 188.011719 C 227.480469 188.085938 226.539062 188.894531 225.753906 190.449219 Z M 247.648438 202.59375 L 242.300781 202.59375 L 242.300781 183.445312 L 247.648438 183.445312 Z M 242.105469 178.878906 C 242.105469 179.648438 242.359375 180.28125 242.863281 180.785156 C 243.382812 181.289062 244.09375 181.542969 244.988281 181.542969 C 245.867188 181.542969 246.566406 181.289062 247.089844 180.785156 C 247.59375 180.28125 247.847656 179.648438 247.847656 178.878906 C 247.847656 178.113281 247.59375 177.46875 247.089844 176.949219 C 246.566406 176.425781 245.847656 176.160156 244.933594 176.160156 C 244.074219 176.160156 243.382812 176.425781 242.863281 176.949219 C 242.359375 177.46875 242.105469 178.113281 242.105469 178.878906 Z M 254.789062 189.019531 L 252.691406 185.769531 C 255.117188 184.238281 257.925781 183.472656 261.117188 183.472656 C 263.414062 183.472656 265.234375 184.105469 266.578125 185.378906 C 267.902344 186.660156 268.566406 188.578125 268.566406 191.113281 L 268.566406 202.59375 L 263.21875 202.59375 L 263.21875 201.082031 C 261.667969 202.089844 260.269531 202.59375 259.019531 202.59375 C 256.460938 202.59375 254.546875 202.054688 253.277344 200.972656 C 251.988281 199.894531 251.347656 198.398438 251.347656 196.496094 C 251.347656 194.699219 251.953125 193.105469 253.164062 191.707031 C 254.359375 190.308594 256.3125 189.605469 259.019531 189.605469 C 260.25 189.605469 261.648438 189.984375 263.21875 190.753906 L 263.21875 190.167969 C 263.199219 188.765625 262.183594 187.996094 260.164062 187.871094 C 257.871094 187.871094 256.078125 188.25 254.789062 189.019531 Z M 263.21875 196.855469 L 263.21875 194.699219 C 262.714844 193.710938 261.5 193.21875 259.578125 193.21875 C 257.28125 193.476562 256.070312 194.371094 255.9375 195.902344 C 256.070312 197.414062 257.28125 198.238281 259.578125 198.371094 C 261.5 198.371094 262.714844 197.863281 263.21875 196.855469 Z M 263.21875 196.855469 "/>
<path style=" stroke:none;fill-rule:nonzero;fill:rgb(100%,84.313725%,84.313725%);fill-opacity:1;" d="M 150 162.867188 C 159.851562 162.867188 169.085938 159.089844 176.035156 152.136719 C 182.980469 145.191406 186.765625 135.957031 186.765625 126.105469 C 186.765625 116.25 182.980469 107.015625 176.035156 100.074219 C 169.085938 93.121094 159.851562 89.339844 150 89.339844 C 140.148438 89.339844 130.914062 93.121094 123.964844 100.074219 C 117.019531 107.015625 113.234375 116.25 113.234375 126.105469 C 113.234375 135.957031 117.019531 145.191406 123.964844 152.136719 C 130.914062 159.089844 140.148438 162.867188 150 162.867188 Z M 152.109375 156.621094 C 151.40625 156.707031 150.703125 156.707031 150 156.707031 C 149.03125 156.707031 148.066406 156.621094 147.097656 156.535156 C 143.929688 151.613281 141.554688 146.332031 140.148438 140.789062 L 155.71875 140.789062 C 156.246094 142.113281 157.210938 143.34375 158.355469 144.136719 C 156.859375 148.527344 154.75 152.667969 152.109375 156.621094 Z M 160.464844 154.863281 C 162.136719 151.785156 163.457031 148.707031 164.511719 145.453125 C 167.0625 144.925781 169.085938 143.167969 170.054688 140.789062 L 176.824219 140.789062 C 173.308594 147.210938 167.414062 152.226562 160.464844 154.863281 Z M 180.519531 126.105469 C 180.519531 129.003906 180.078125 131.816406 179.375 134.550781 L 169.878906 134.550781 C 169.347656 133.40625 168.46875 132.347656 167.414062 131.554688 C 167.589844 129.621094 167.679688 127.6875 167.679688 125.753906 C 167.679688 123.023438 167.503906 120.300781 167.152344 117.660156 L 179.289062 117.660156 C 180.167969 120.300781 180.519531 123.199219 180.519531 126.105469 Z M 176.824219 111.417969 L 166.09375 111.417969 C 164.953125 106.574219 163.28125 102.003906 160.992188 97.605469 C 167.679688 100.160156 173.308594 105.167969 176.824219 111.417969 Z M 161.523438 125.753906 C 161.523438 127.246094 161.433594 128.742188 161.347656 130.238281 C 158.882812 130.761719 156.859375 132.347656 155.894531 134.550781 L 138.917969 134.550781 C 138.566406 131.90625 138.300781 129.183594 138.300781 126.542969 C 138.300781 124.871094 138.390625 123.199219 138.566406 121.527344 C 140.851562 121.089844 142.699219 119.597656 143.84375 117.660156 L 160.992188 117.660156 C 161.347656 120.300781 161.523438 123.023438 161.523438 125.753906 Z M 147.714844 95.671875 C 148.503906 95.582031 149.296875 95.582031 150 95.582031 C 150.878906 95.582031 151.757812 95.582031 152.636719 95.671875 C 155.804688 100.597656 158.179688 105.871094 159.585938 111.417969 L 144.28125 111.417969 C 143.753906 109.921875 142.789062 108.605469 141.554688 107.628906 C 143.140625 103.410156 145.164062 99.449219 147.714844 95.671875 Z M 139.359375 97.429688 C 137.863281 100.246094 136.542969 103.238281 135.488281 106.222656 C 132.761719 106.753906 130.5625 108.777344 129.683594 111.328125 L 123.261719 111.328125 C 126.691406 105.082031 132.410156 100.074219 139.359375 97.429688 Z M 119.480469 126.105469 C 119.480469 123.199219 119.921875 120.300781 120.710938 117.660156 L 130.296875 117.660156 C 130.828125 118.628906 131.617188 119.507812 132.496094 120.210938 C 132.320312 122.320312 132.144531 124.429688 132.144531 126.542969 C 132.144531 129.269531 132.320312 131.90625 132.671875 134.550781 L 120.710938 134.550781 C 119.832031 131.816406 119.480469 129.003906 119.480469 126.105469 Z M 133.730469 140.699219 C 134.871094 145.453125 136.542969 150.117188 138.828125 154.511719 C 132.144531 151.875 126.605469 146.949219 123.175781 140.699219 Z M 133.730469 140.699219 "/>
</g>
</svg>
