<?xml version="1.0" encoding="UTF-8"?>
<svg xmlns="http://www.w3.org/2000/svg" xmlns:xlink="http://www.w3.org/1999/xlink" width="485pt" height="78pt" viewBox="0 0 485 78" version="1.1">
<g id="surface1">
<path style=" stroke:none;fill-rule:nonzero;fill:rgb(0%,0%,0%);fill-opacity:1;" d="M 121.050781 55.667969 C 114.410156 55.667969 108.851562 53.425781 104.371094 48.949219 C 99.894531 44.472656 97.65625 38.882812 97.65625 32.179688 C 97.65625 25.597656 99.894531 20.054688 104.371094 15.546875 C 108.851562 11.066406 114.410156 8.828125 121.050781 8.828125 C 127.722656 8.828125 133.449219 10.914062 138.234375 15.089844 L 132.019531 21.898438 C 128.820312 19.398438 125.164062 18.148438 121.050781 18.148438 C 116.847656 18.179688 113.449219 19.503906 110.863281 22.125 C 108.300781 24.714844 107.023438 28.035156 107.023438 32.085938 C 107.023438 36.445312 108.316406 39.902344 110.90625 42.460938 C 113.496094 45.019531 116.894531 46.300781 121.097656 46.300781 C 124.480469 46.300781 127.070312 45.644531 128.867188 44.335938 L 128.867188 36.292969 L 122.652344 36.335938 L 122.652344 27.5625 L 138.234375 27.5625 L 138.234375 49.453125 C 133.480469 53.59375 127.753906 55.667969 121.050781 55.667969 Z M 155.003906 24.410156 L 155.003906 27.882812 C 157.257812 25.597656 159.984375 24.457031 163.183594 24.457031 C 164.191406 24.457031 165.148438 24.53125 166.0625 24.683594 L 164.691406 33.320312 C 163.6875 32.40625 162.238281 31.917969 160.351562 31.859375 C 158.21875 32.011719 156.4375 33.550781 155.003906 36.472656 L 155.003906 55.667969 L 146.277344 55.667969 L 146.277344 25.371094 Z M 185.941406 55.988281 C 181.402344 55.988281 177.609375 54.464844 174.5625 51.417969 C 171.546875 48.371094 170.039062 44.59375 170.039062 40.085938 C 170.039062 35.546875 171.546875 31.753906 174.5625 28.707031 C 177.609375 25.660156 181.402344 24.136719 185.941406 24.136719 C 190.480469 24.136719 194.273438 25.660156 197.320312 28.707031 C 200.367188 31.753906 201.890625 35.546875 201.890625 40.085938 C 201.890625 44.625 200.367188 48.402344 197.320312 51.417969 C 194.273438 54.464844 190.480469 55.988281 185.941406 55.988281 Z M 185.941406 48.445312 C 188.289062 48.445312 190.207031 47.640625 191.699219 46.023438 C 193.191406 44.441406 193.9375 42.460938 193.9375 40.085938 C 193.9375 37.707031 193.191406 35.726562 191.699219 34.144531 C 190.207031 32.527344 188.273438 31.722656 185.894531 31.722656 C 183.550781 31.722656 181.628906 32.527344 180.136719 34.144531 C 178.675781 35.726562 177.945312 37.707031 177.945312 40.085938 C 177.945312 42.460938 178.675781 44.441406 180.136719 46.023438 C 181.628906 47.640625 183.566406 48.445312 185.941406 48.445312 Z M 226.65625 44.609375 L 226.65625 24.410156 L 235.386719 24.410156 L 235.386719 55.667969 L 226.65625 55.667969 L 226.65625 52.832031 C 224.554688 54.722656 222.058594 55.667969 219.164062 55.667969 C 215.203125 55.667969 212.1875 54.464844 210.113281 52.058594 C 208.011719 49.648438 206.960938 46.894531 206.960938 43.785156 L 206.960938 24.410156 L 215.734375 24.410156 L 215.734375 41.59375 C 215.734375 43.664062 216.253906 45.277344 217.289062 46.4375 C 218.324219 47.59375 219.894531 48.203125 221.996094 48.265625 C 223.824219 48.140625 225.378906 46.921875 226.65625 44.609375 Z M 251.5625 68.828125 L 242.835938 68.78125 L 242.835938 25.371094 L 251.5625 24.410156 L 251.5625 26.921875 C 253.90625 25.246094 256.207031 24.410156 258.460938 24.410156 C 263.246094 24.410156 267.039062 25.980469 269.839844 29.117188 C 272.675781 32.222656 274.089844 35.863281 274.089844 40.039062 C 274.089844 44.210938 272.675781 47.851562 269.839844 50.960938 C 267.039062 54.097656 263.246094 55.667969 258.460938 55.667969 C 255.324219 55.453125 253.023438 54.601562 251.5625 53.109375 Z M 251.5625 37.207031 L 251.5625 42.277344 C 251.988281 45.78125 254.183594 47.835938 258.140625 48.445312 C 263.140625 48.050781 265.957031 45.460938 266.597656 40.679688 C 266.382812 34.828125 263.566406 31.796875 258.140625 31.585938 C 254.183594 32.222656 251.988281 34.097656 251.5625 37.207031 Z M 294.425781 55.988281 C 289.886719 55.988281 286.109375 54.464844 283.09375 51.417969 C 280.046875 48.371094 278.523438 44.59375 278.523438 40.085938 C 278.523438 35.546875 280.046875 31.753906 283.09375 28.707031 C 286.109375 25.660156 289.886719 24.136719 294.425781 24.136719 C 298.964844 24.136719 302.757812 25.660156 305.804688 28.707031 C 308.851562 31.753906 310.375 35.546875 310.375 40.085938 C 310.375 44.625 308.851562 48.402344 305.804688 51.417969 C 302.757812 54.464844 298.964844 55.988281 294.425781 55.988281 Z M 294.425781 48.445312 C 296.800781 48.445312 298.722656 47.640625 300.183594 46.023438 C 301.675781 44.441406 302.421875 42.460938 302.421875 40.085938 C 302.421875 37.707031 301.675781 35.726562 300.183594 34.144531 C 298.722656 32.527344 296.785156 31.722656 294.378906 31.722656 C 292.035156 31.722656 290.113281 32.527344 288.621094 34.144531 C 287.160156 35.726562 286.429688 37.707031 286.429688 40.085938 C 286.429688 42.460938 287.160156 44.441406 288.621094 46.023438 C 290.113281 47.640625 292.050781 48.445312 294.425781 48.445312 Z M 324.953125 35.699219 L 324.953125 55.667969 L 316.175781 55.667969 L 316.175781 25.371094 L 324.953125 24.410156 L 324.953125 27.199219 C 326.902344 25.371094 329.398438 24.457031 332.445312 24.457031 C 336.375 24.457031 339.390625 25.644531 341.492188 28.019531 C 343.777344 25.644531 347.207031 24.457031 351.777344 24.457031 C 355.734375 24.457031 358.765625 25.644531 360.871094 28.019531 C 362.941406 30.425781 363.976562 33.199219 363.976562 36.335938 L 363.976562 55.667969 L 355.25 55.667969 L 355.25 38.484375 C 355.25 36.414062 354.777344 34.796875 353.832031 33.640625 C 352.886719 32.515625 351.363281 31.917969 349.261719 31.859375 C 347.527344 31.980469 346.03125 33.125 344.785156 35.285156 C 344.660156 35.925781 344.601562 36.582031 344.601562 37.25 L 344.601562 55.667969 L 335.871094 55.667969 L 335.871094 38.484375 C 335.871094 36.414062 335.402344 34.796875 334.457031 33.640625 C 333.511719 32.515625 331.988281 31.917969 329.886719 31.859375 C 327.96875 31.980469 326.324219 33.261719 324.953125 35.699219 Z M 375.71875 33.503906 L 372.292969 28.203125 C 376.253906 25.703125 380.839844 24.457031 386.046875 24.457031 C 389.796875 24.457031 392.75 25.492188 394.914062 27.5625 C 397.105469 29.664062 398.203125 32.789062 398.203125 36.929688 L 398.203125 55.667969 L 389.476562 55.667969 L 389.476562 53.199219 C 386.917969 54.84375 384.617188 55.667969 382.574219 55.667969 C 378.433594 55.667969 375.308594 54.785156 373.207031 53.015625 C 371.136719 51.25 370.101562 48.8125 370.101562 45.703125 C 370.101562 42.78125 371.089844 40.175781 373.070312 37.890625 C 375.019531 35.605469 378.1875 34.464844 382.574219 34.464844 C 384.617188 34.464844 386.917969 35.089844 389.476562 36.335938 L 389.476562 35.378906 C 389.414062 33.09375 387.738281 31.84375 384.449219 31.628906 C 380.703125 31.628906 377.792969 32.253906 375.71875 33.503906 Z M 389.476562 46.300781 L 389.476562 42.78125 C 388.652344 41.164062 386.671875 40.359375 383.535156 40.359375 C 379.789062 40.785156 377.808594 42.246094 377.59375 44.746094 C 377.808594 47.214844 379.789062 48.554688 383.535156 48.765625 C 386.671875 48.765625 388.652344 47.945312 389.476562 46.300781 Z M 414.792969 35.835938 L 414.792969 55.667969 L 406.019531 55.667969 L 406.019531 25.371094 L 414.792969 24.410156 L 414.792969 27.242188 C 416.894531 25.386719 419.390625 24.457031 422.285156 24.457031 C 426.246094 24.457031 429.261719 25.644531 431.332031 28.019531 C 433.40625 30.425781 434.441406 33.199219 434.441406 36.335938 L 434.441406 55.667969 L 425.714844 55.667969 L 425.714844 38.484375 C 425.714844 36.414062 425.195312 34.796875 424.160156 33.640625 C 423.09375 32.515625 421.507812 31.917969 419.40625 31.859375 C 417.609375 31.980469 416.070312 33.304688 414.792969 35.835938 Z M 450.527344 55.667969 L 441.796875 55.667969 L 441.796875 24.410156 L 450.527344 24.410156 Z M 441.476562 16.960938 C 441.476562 18.210938 441.890625 19.246094 442.710938 20.070312 C 443.566406 20.890625 444.722656 21.304688 446.183594 21.304688 C 447.617188 21.304688 448.757812 20.890625 449.613281 20.070312 C 450.433594 19.246094 450.847656 18.210938 450.847656 16.960938 C 450.847656 15.710938 450.433594 14.660156 449.613281 13.808594 C 448.757812 12.957031 447.585938 12.527344 446.09375 12.527344 C 444.691406 12.527344 443.566406 12.957031 442.710938 13.808594 C 441.890625 14.660156 441.476562 15.710938 441.476562 16.960938 Z M 462.179688 33.503906 L 458.75 28.203125 C 462.710938 25.703125 467.296875 24.457031 472.507812 24.457031 C 476.253906 24.457031 479.222656 25.492188 481.417969 27.5625 C 483.582031 29.664062 484.660156 32.789062 484.660156 36.929688 L 484.660156 55.667969 L 475.933594 55.667969 L 475.933594 53.199219 C 473.40625 54.84375 471.121094 55.667969 469.078125 55.667969 C 464.90625 55.667969 461.78125 54.785156 459.710938 53.015625 C 457.609375 51.25 456.558594 48.8125 456.558594 45.703125 C 456.558594 42.78125 457.546875 40.175781 459.527344 37.890625 C 461.476562 35.605469 464.660156 34.464844 469.078125 34.464844 C 471.089844 34.464844 473.375 35.089844 475.933594 36.335938 L 475.933594 35.378906 C 475.902344 33.09375 474.242188 31.84375 470.953125 31.628906 C 467.207031 31.628906 464.28125 32.253906 462.179688 33.503906 Z M 475.933594 46.300781 L 475.933594 42.78125 C 475.113281 41.164062 473.132812 40.359375 469.992188 40.359375 C 466.246094 40.785156 464.265625 42.246094 464.050781 44.746094 C 464.265625 47.214844 466.246094 48.554688 469.992188 48.765625 C 473.132812 48.765625 475.113281 47.945312 475.933594 46.300781 Z M 475.933594 46.300781 "/>
<path style=" stroke:none;fill-rule:nonzero;fill:rgb(0%,0%,0%);fill-opacity:1;" d="M 39.199219 78.027344 C 49.605469 78.027344 59.355469 74.035156 66.695312 66.695312 C 74.035156 59.355469 78.027344 49.605469 78.027344 39.199219 C 78.027344 28.796875 74.035156 19.042969 66.695312 11.703125 C 59.355469 4.367188 49.605469 0.371094 39.199219 0.371094 C 28.796875 0.371094 19.042969 4.367188 11.703125 11.703125 C 4.367188 19.042969 0.371094 28.796875 0.371094 39.199219 C 0.371094 49.605469 4.367188 59.355469 11.703125 66.695312 C 19.042969 74.035156 28.796875 78.027344 39.199219 78.027344 Z M 41.429688 71.433594 C 40.6875 71.523438 39.941406 71.523438 39.199219 71.523438 C 38.179688 71.523438 37.15625 71.433594 36.132812 71.339844 C 32.789062 66.136719 30.28125 60.5625 28.796875 54.710938 L 45.238281 54.710938 C 45.796875 56.105469 46.816406 57.40625 48.023438 58.242188 C 46.445312 62.886719 44.214844 67.253906 41.429688 71.433594 Z M 50.253906 69.574219 C 52.019531 66.324219 53.410156 63.074219 54.527344 59.636719 C 57.21875 59.078125 59.355469 57.21875 60.378906 54.710938 L 67.53125 54.710938 C 63.816406 61.492188 57.59375 66.789062 50.253906 69.574219 Z M 71.433594 39.199219 C 71.433594 42.265625 70.96875 45.238281 70.226562 48.117188 L 60.191406 48.117188 C 59.636719 46.910156 58.707031 45.796875 57.59375 44.960938 C 57.777344 42.914062 57.871094 40.871094 57.871094 38.828125 C 57.871094 35.949219 57.683594 33.070312 57.3125 30.28125 L 70.132812 30.28125 C 71.0625 33.070312 71.433594 36.132812 71.433594 39.199219 Z M 67.53125 23.6875 L 56.199219 23.6875 C 54.992188 18.578125 53.226562 13.75 50.8125 9.105469 C 57.871094 11.796875 63.816406 17.09375 67.53125 23.6875 Z M 51.367188 38.828125 C 51.367188 40.40625 51.277344 41.988281 51.183594 43.566406 C 48.582031 44.125 46.445312 45.796875 45.421875 48.117188 L 27.496094 48.117188 C 27.125 45.332031 26.847656 42.449219 26.847656 39.664062 C 26.847656 37.898438 26.9375 36.132812 27.125 34.371094 C 29.539062 33.90625 31.488281 32.328125 32.699219 30.28125 L 50.8125 30.28125 C 51.183594 33.070312 51.367188 35.949219 51.367188 38.828125 Z M 36.785156 7.058594 C 37.621094 6.96875 38.457031 6.96875 39.199219 6.96875 C 40.128906 6.96875 41.058594 6.96875 41.988281 7.058594 C 45.332031 12.261719 47.839844 17.835938 49.324219 23.6875 L 33.164062 23.6875 C 32.605469 22.109375 31.582031 20.714844 30.28125 19.691406 C 31.953125 15.234375 34.089844 11.054688 36.785156 7.058594 Z M 27.960938 8.917969 C 26.382812 11.890625 24.988281 15.050781 23.875 18.207031 C 20.992188 18.765625 18.671875 20.902344 17.742188 23.59375 L 10.960938 23.59375 C 14.585938 17 20.621094 11.703125 27.960938 8.917969 Z M 6.96875 39.199219 C 6.96875 36.132812 7.433594 33.070312 8.269531 30.28125 L 18.394531 30.28125 C 18.949219 31.304688 19.785156 32.234375 20.714844 32.976562 C 20.53125 35.207031 20.34375 37.433594 20.34375 39.664062 C 20.34375 42.542969 20.53125 45.332031 20.902344 48.117188 L 8.269531 48.117188 C 7.339844 45.238281 6.96875 42.265625 6.96875 39.199219 Z M 22.015625 54.621094 C 23.222656 59.636719 24.988281 64.558594 27.402344 69.203125 C 20.34375 66.417969 14.492188 61.214844 10.867188 54.621094 Z M 22.015625 54.621094 "/>
</g>
</svg>
