<?xml version="1.0" encoding="UTF-8"?>
<svg xmlns="http://www.w3.org/2000/svg" xmlns:xlink="http://www.w3.org/1999/xlink" width="400pt" height="400pt" viewBox="0 0 400 400" version="1.1">
<g id="surface1">
<rect x="0" y="0" width="400" height="400" style="fill:rgb(100%,100%,100%);fill-opacity:1;stroke:none;"/>
<path style=" stroke:none;fill-rule:nonzero;fill:rgb(99.215686%,17.647059%,0.392157%);fill-opacity:1;" d="M 61.027344 270.125 C 55.597656 270.125 51.058594 268.296875 47.402344 264.640625 C 43.738281 260.984375 41.910156 256.414062 41.910156 250.9375 C 41.910156 245.5625 43.738281 241.03125 47.402344 237.351562 C 51.058594 233.695312 55.597656 231.859375 61.027344 231.859375 C 66.480469 231.859375 71.15625 233.570312 75.0625 236.976562 L 69.984375 242.539062 C 67.375 240.5 64.386719 239.476562 61.027344 239.476562 C 57.59375 239.5 54.816406 240.585938 52.703125 242.726562 C 50.609375 244.84375 49.566406 247.554688 49.566406 250.867188 C 49.566406 254.421875 50.625 257.25 52.738281 259.335938 C 54.855469 261.429688 57.628906 262.476562 61.0625 262.476562 C 63.828125 262.476562 65.941406 261.9375 67.410156 260.867188 L 67.410156 254.296875 L 62.332031 254.335938 L 62.332031 247.171875 L 75.0625 247.171875 L 75.0625 265.054688 C 71.183594 268.4375 66.5 270.125 61.027344 270.125 Z M 88.765625 244.59375 L 88.765625 247.429688 C 90.609375 245.5625 92.832031 244.632812 95.449219 244.632812 C 96.269531 244.632812 97.050781 244.695312 97.800781 244.820312 L 96.683594 251.875 C 95.859375 251.125 94.675781 250.726562 93.136719 250.679688 C 91.390625 250.804688 89.9375 252.0625 88.765625 254.445312 L 88.765625 270.125 L 81.636719 270.125 L 81.636719 245.375 Z M 114.042969 270.390625 C 110.332031 270.390625 107.234375 269.148438 104.746094 266.65625 C 102.28125 264.164062 101.046875 261.078125 101.046875 257.398438 C 101.046875 253.6875 102.28125 250.59375 104.746094 248.101562 C 107.234375 245.609375 110.332031 244.367188 114.042969 244.367188 C 117.75 244.367188 120.847656 245.609375 123.339844 248.101562 C 125.824219 250.59375 127.066406 253.6875 127.066406 257.398438 C 127.066406 261.109375 125.824219 264.195312 123.339844 266.65625 C 120.847656 269.148438 117.75 270.390625 114.042969 270.390625 Z M 114.042969 264.226562 C 115.957031 264.226562 117.527344 263.570312 118.746094 262.25 C 119.964844 260.960938 120.574219 259.335938 120.574219 257.398438 C 120.574219 255.453125 119.964844 253.835938 118.746094 252.546875 C 117.527344 251.226562 115.941406 250.5625 114.003906 250.5625 C 112.089844 250.5625 110.515625 251.226562 109.296875 252.546875 C 108.105469 253.835938 107.503906 255.453125 107.503906 257.398438 C 107.503906 259.335938 108.105469 260.960938 109.296875 262.25 C 110.515625 263.570312 112.097656 264.226562 114.042969 264.226562 Z M 147.300781 261.09375 L 147.300781 244.59375 L 154.433594 244.59375 L 154.433594 270.125 L 147.300781 270.125 L 147.300781 267.8125 C 145.589844 269.359375 143.546875 270.125 141.183594 270.125 C 137.949219 270.125 135.484375 269.148438 133.792969 267.179688 C 132.074219 265.210938 131.214844 262.960938 131.214844 260.421875 L 131.214844 244.59375 L 138.378906 244.59375 L 138.378906 258.632812 C 138.378906 260.320312 138.800781 261.640625 139.652344 262.585938 C 140.496094 263.53125 141.78125 264.03125 143.496094 264.078125 C 144.988281 263.984375 146.261719 262.984375 147.300781 261.09375 Z M 167.652344 280.882812 L 160.519531 280.84375 L 160.519531 245.375 L 167.652344 244.59375 L 167.652344 246.648438 C 169.566406 245.273438 171.449219 244.59375 173.285156 244.59375 C 177.199219 244.59375 180.292969 245.875 182.582031 248.4375 C 184.902344 250.976562 186.058594 253.953125 186.058594 257.359375 C 186.058594 260.773438 184.902344 263.742188 182.582031 266.28125 C 180.292969 268.84375 177.199219 270.125 173.285156 270.125 C 170.722656 269.953125 168.84375 269.257812 167.652344 268.039062 Z M 167.652344 255.046875 L 167.652344 259.1875 C 168 262.054688 169.792969 263.734375 173.027344 264.226562 C 177.109375 263.90625 179.410156 261.789062 179.933594 257.882812 C 179.761719 253.101562 177.457031 250.625 173.027344 250.453125 C 169.792969 250.976562 168 252.507812 167.652344 255.046875 Z M 202.671875 270.390625 C 198.957031 270.390625 195.875 269.148438 193.410156 266.65625 C 190.921875 264.164062 189.675781 261.078125 189.675781 257.398438 C 189.675781 253.6875 190.921875 250.59375 193.410156 248.101562 C 195.875 245.609375 198.957031 244.367188 202.671875 244.367188 C 206.378906 244.367188 209.472656 245.609375 211.964844 248.101562 C 214.453125 250.59375 215.699219 253.6875 215.699219 257.398438 C 215.699219 261.109375 214.453125 264.195312 211.964844 266.65625 C 209.472656 269.148438 206.378906 270.390625 202.671875 270.390625 Z M 202.671875 264.226562 C 204.609375 264.226562 206.175781 263.570312 207.375 262.25 C 208.59375 260.960938 209.203125 259.335938 209.203125 257.398438 C 209.203125 255.453125 208.59375 253.835938 207.375 252.546875 C 206.175781 251.226562 204.597656 250.5625 202.628906 250.5625 C 200.714844 250.5625 199.144531 251.226562 197.925781 252.546875 C 196.734375 253.835938 196.136719 255.453125 196.136719 257.398438 C 196.136719 259.335938 196.734375 260.960938 197.925781 262.25 C 199.144531 263.570312 200.730469 264.226562 202.671875 264.226562 Z M 227.609375 253.8125 L 227.609375 270.125 L 220.4375 270.125 L 220.4375 245.375 L 227.609375 244.59375 L 227.609375 246.867188 C 229.203125 245.375 231.238281 244.632812 233.730469 244.632812 C 236.941406 244.632812 239.40625 245.601562 241.125 247.539062 C 242.988281 245.601562 245.792969 244.632812 249.519531 244.632812 C 252.761719 244.632812 255.234375 245.601562 256.953125 247.539062 C 258.644531 249.507812 259.488281 251.773438 259.488281 254.335938 L 259.488281 270.125 L 252.359375 270.125 L 252.359375 256.09375 C 252.359375 254.398438 251.972656 253.078125 251.203125 252.132812 C 250.433594 251.210938 249.1875 250.726562 247.46875 250.679688 C 246.050781 250.78125 244.832031 251.710938 243.8125 253.476562 C 243.714844 254 243.660156 254.539062 243.660156 255.085938 L 243.660156 270.125 L 236.53125 270.125 L 236.53125 256.09375 C 236.53125 254.398438 236.144531 253.078125 235.375 252.132812 C 234.605469 251.210938 233.359375 250.726562 231.640625 250.679688 C 230.074219 250.78125 228.730469 251.820312 227.609375 253.8125 Z M 269.082031 252.023438 L 266.285156 247.695312 C 269.519531 245.648438 273.265625 244.632812 277.519531 244.632812 C 280.582031 244.632812 283 245.476562 284.765625 247.171875 C 286.558594 248.882812 287.453125 251.4375 287.453125 254.820312 L 287.453125 270.125 L 280.324219 270.125 L 280.324219 268.109375 C 278.234375 269.453125 276.355469 270.125 274.6875 270.125 C 271.300781 270.125 268.75 269.40625 267.03125 267.960938 C 265.339844 266.523438 264.496094 264.53125 264.496094 261.992188 C 264.496094 259.601562 265.300781 257.476562 266.921875 255.609375 C 268.511719 253.742188 271.097656 252.804688 274.6875 252.804688 C 276.355469 252.804688 278.234375 253.3125 280.324219 254.335938 L 280.324219 253.554688 C 280.269531 251.6875 278.90625 250.664062 276.214844 250.492188 C 273.15625 250.492188 270.777344 251 269.082031 252.023438 Z M 280.324219 262.476562 L 280.324219 259.601562 C 279.652344 258.28125 278.03125 257.625 275.46875 257.625 C 272.40625 257.96875 270.792969 259.164062 270.613281 261.203125 C 270.792969 263.21875 272.40625 264.320312 275.46875 264.492188 C 278.03125 264.492188 279.652344 263.820312 280.324219 262.476562 Z M 301.003906 253.929688 L 301.003906 270.125 L 293.839844 270.125 L 293.839844 245.375 L 301.003906 244.59375 L 301.003906 246.90625 C 302.722656 245.390625 304.765625 244.632812 307.128906 244.632812 C 310.363281 244.632812 312.828125 245.601562 314.519531 247.539062 C 316.214844 249.507812 317.058594 251.773438 317.058594 254.335938 L 317.058594 270.125 L 309.925781 270.125 L 309.925781 256.09375 C 309.925781 254.398438 309.503906 253.078125 308.65625 252.132812 C 307.785156 251.210938 306.496094 250.726562 304.777344 250.679688 C 303.308594 250.78125 302.050781 251.859375 301.003906 253.929688 Z M 330.199219 270.125 L 323.066406 270.125 L 323.066406 244.59375 L 330.199219 244.59375 Z M 322.808594 238.507812 C 322.808594 239.53125 323.144531 240.375 323.816406 241.046875 C 324.511719 241.71875 325.457031 242.054688 326.652344 242.054688 C 327.824219 242.054688 328.753906 241.71875 329.453125 241.046875 C 330.125 240.375 330.464844 239.53125 330.464844 238.507812 C 330.464844 237.484375 330.125 236.625 329.453125 235.929688 C 328.753906 235.234375 327.796875 234.882812 326.578125 234.882812 C 325.433594 234.882812 324.511719 235.234375 323.816406 235.929688 C 323.144531 236.625 322.808594 237.484375 322.808594 238.507812 Z M 339.71875 252.023438 L 336.921875 247.695312 C 340.15625 245.648438 343.902344 244.632812 348.15625 244.632812 C 351.21875 244.632812 353.644531 245.476562 355.4375 247.171875 C 357.203125 248.882812 358.089844 251.4375 358.089844 254.820312 L 358.089844 270.125 L 350.957031 270.125 L 350.957031 268.109375 C 348.890625 269.453125 347.027344 270.125 345.359375 270.125 C 341.949219 270.125 339.394531 269.40625 337.703125 267.960938 C 335.984375 266.523438 335.128906 264.53125 335.128906 261.992188 C 335.128906 259.601562 335.9375 257.476562 337.550781 255.609375 C 339.144531 253.742188 341.75 252.804688 345.359375 252.804688 C 347 252.804688 348.863281 253.3125 350.957031 254.335938 L 350.957031 253.554688 C 350.933594 251.6875 349.578125 250.664062 346.886719 250.492188 C 343.828125 250.492188 341.4375 251 339.71875 252.023438 Z M 350.957031 262.476562 L 350.957031 259.601562 C 350.285156 258.28125 348.667969 257.625 346.105469 257.625 C 343.042969 257.96875 341.425781 259.164062 341.25 261.203125 C 341.425781 263.21875 343.042969 264.320312 346.105469 264.492188 C 348.667969 264.492188 350.285156 263.820312 350.957031 262.476562 Z M 350.957031 262.476562 "/>
<path style=" stroke:none;fill-rule:nonzero;fill:rgb(100%,84.313725%,84.313725%);fill-opacity:1;" d="M 200 217.15625 C 213.136719 217.15625 225.449219 212.117188 234.714844 202.851562 C 243.972656 193.585938 249.019531 181.273438 249.019531 168.140625 C 249.019531 155 243.972656 142.6875 234.714844 133.429688 C 225.449219 124.164062 213.136719 119.117188 200 119.117188 C 186.863281 119.117188 174.550781 124.164062 165.285156 133.429688 C 156.027344 142.6875 150.980469 155 150.980469 168.140625 C 150.980469 181.273438 156.027344 193.585938 165.285156 202.851562 C 174.550781 212.117188 186.863281 217.15625 200 217.15625 Z M 202.8125 208.828125 C 201.875 208.945312 200.9375 208.945312 200 208.945312 C 198.707031 208.945312 197.421875 208.828125 196.128906 208.710938 C 191.90625 202.148438 188.738281 195.109375 186.863281 187.71875 L 207.625 187.71875 C 208.328125 189.484375 209.613281 191.125 211.140625 192.179688 C 209.144531 198.039062 206.332031 203.554688 202.8125 208.828125 Z M 213.953125 206.484375 C 216.183594 202.382812 217.941406 198.273438 219.347656 193.9375 C 222.75 193.234375 225.449219 190.890625 226.738281 187.71875 L 235.765625 187.71875 C 231.078125 196.28125 223.21875 202.96875 213.953125 206.484375 Z M 240.691406 168.140625 C 240.691406 172.007812 240.105469 175.757812 239.167969 179.398438 L 226.503906 179.398438 C 225.796875 177.875 224.625 176.460938 223.21875 175.40625 C 223.453125 172.828125 223.574219 170.25 223.574219 167.671875 C 223.574219 164.03125 223.339844 160.398438 222.871094 156.882812 L 239.050781 156.882812 C 240.222656 160.398438 240.691406 164.265625 240.691406 168.140625 Z M 235.765625 148.554688 L 221.457031 148.554688 C 219.9375 142.101562 217.707031 136.007812 214.65625 130.140625 C 223.574219 133.546875 231.078125 140.226562 235.765625 148.554688 Z M 215.363281 167.671875 C 215.363281 169.664062 215.246094 171.65625 215.128906 173.648438 C 211.84375 174.351562 209.144531 176.460938 207.859375 179.398438 L 185.222656 179.398438 C 184.753906 175.875 184.402344 172.242188 184.402344 168.726562 C 184.402344 166.492188 184.519531 164.265625 184.753906 162.039062 C 187.800781 161.453125 190.265625 159.460938 191.792969 156.882812 L 214.65625 156.882812 C 215.128906 160.398438 215.363281 164.03125 215.363281 167.671875 Z M 196.953125 127.5625 C 198.003906 127.445312 199.0625 127.445312 200 127.445312 C 201.171875 127.445312 202.34375 127.445312 203.515625 127.5625 C 207.738281 134.132812 210.90625 141.164062 212.78125 148.554688 L 192.375 148.554688 C 191.671875 146.5625 190.386719 144.804688 188.738281 143.507812 C 190.855469 137.882812 193.550781 132.601562 196.953125 127.5625 Z M 185.8125 129.90625 C 183.816406 133.664062 182.058594 137.648438 180.652344 141.632812 C 177.015625 142.335938 174.082031 145.039062 172.910156 148.4375 L 164.347656 148.4375 C 168.921875 140.109375 176.546875 133.429688 185.8125 129.90625 Z M 159.308594 168.140625 C 159.308594 164.265625 159.894531 160.398438 160.949219 156.882812 L 173.730469 156.882812 C 174.4375 158.171875 175.488281 159.34375 176.660156 160.28125 C 176.425781 163.09375 176.191406 165.90625 176.191406 168.726562 C 176.191406 172.359375 176.425781 175.875 176.894531 179.398438 L 160.949219 179.398438 C 159.777344 175.757812 159.308594 172.007812 159.308594 168.140625 Z M 178.308594 187.601562 C 179.828125 193.9375 182.058594 200.15625 185.105469 206.015625 C 176.191406 202.5 168.808594 195.929688 164.234375 187.601562 Z M 178.308594 187.601562 "/>
</g>
</svg>
